# xmcd
#
# Track frame offsets: 
#        150
#        20277
#        41423
#        57268
#        74262
#        93670
#        108750
#        126382
#        147412
#        170951
#        182324
#        203220
#        220575
#        236430
#        251133
#        274805
#        293661
#        307566
#        322991
#
# Disc length: 4653 seconds
#
# Revision: 1
# Processed by: cddbd v1.5.2PL0 Copyright (c) Steve Scherf et al.
# Submitted via: ExactAudioCopy v0.99pb3
#
DISCID=0f122b13
DTITLE=Gladys Knight and The Pips - Midnight Train To Georgia - The Best
DTITLE=Of [CD1]
DYEAR=2007
DGENRE=Soul
TTITLE0=Where Peaceful Waters Flow
TTITLE1=Midnight Train To Georgia
TTITLE2=I've Got To Use My Imagination
TTITLE3=Best Thing That Ever Happened To Me
TTITLE4=On And On
TTITLE5=I Feel A Song (In My Heart)
TTITLE6=Love Finds Its Own Way
TTITLE7=The Way We Were - Try To Remember
TTITLE8=Money
TTITLE9=Part Time Love
TTITLE10=Make Yours A Happy Home
TTITLE11=So Sad The Song
TTITLE12=Nobody But You
TTITLE13=Baby Don't Change Your Mind
TTITLE14=Home Is Where The Heart Is
TTITLE15=Sorry Doesn't Always Make It Right
TTITLE16=The One And Only
TTITLE17=Come Back And Finish What You Started
TTITLE18=It's A Better Than Good Time
EXTD=
EXTT0=
EXTT1=
EXTT2=
EXTT3=
EXTT4=
EXTT5=
EXTT6=
EXTT7=
EXTT8=
EXTT9=
EXTT10=
EXTT11=
EXTT12=
EXTT13=
EXTT14=
EXTT15=
EXTT16=
EXTT17=
EXTT18=
PLAYORDER=
